<svg width="374" height="314" viewBox="0 0 374 314" fill="none" xmlns="http://www.w3.org/2000/svg">
<g clip-path="url(#clip0)">
<path d="M74.517 314C115.672 314 149.034 310.942 149.034 307.171C149.034 303.399 115.672 300.341 74.517 300.341C33.3624 300.341 0 303.399 0 307.171C0 310.942 33.3624 314 74.517 314Z" fill="#E6E6E6" fill-opacity="0.43"/>
<path d="M56.9594 69.6711C69.9277 63.0151 86.0798 67.2322 101.854 70.1591C102.001 66.6147 103.78 62.3009 101.916 59.828C99.6519 56.8238 99.8604 53.6672 101.223 50.4924C104.707 42.3739 99.7152 33.7354 94.6748 26.5526C93.5387 24.9373 92.1029 23.6681 90.484 22.8482C88.8651 22.0282 87.1087 21.6806 85.3576 21.8336L76.0206 22.6384C73.7485 22.8342 71.5802 23.8627 69.8057 25.5863C68.0313 27.3098 66.7354 29.6462 66.0914 32.2828C63.8619 35.9417 62.6687 39.5905 63.4199 43.2204C60.0805 45.9742 59.5195 49.2984 61.0201 53.0458C62.2925 55.4054 62.279 57.7021 60.9622 59.9353C59.2328 62.7825 57.9083 65.9572 57.0429 69.3293L56.9594 69.6711Z" fill="#111023"/>
<path d="M365.138 271.448H100.83C98.4792 271.448 96.225 270.321 94.563 268.316C92.9009 266.31 91.9672 263.59 91.9672 260.754C187.779 247.317 281.79 247.317 374 260.754C374 263.59 373.066 266.31 371.404 268.316C369.742 270.321 367.488 271.448 365.138 271.448Z" fill="#111023"/>
<path d="M374 261.383L91.9672 260.754L124.654 194.386L124.81 194.071V47.8038C124.81 46.0284 125.1 44.2704 125.663 42.6301C126.226 40.9899 127.051 39.4995 128.091 38.2441C129.132 36.9887 130.367 35.9929 131.726 35.3136C133.085 34.6343 134.542 34.2847 136.013 34.2848H328.39C329.861 34.2847 331.318 34.6343 332.677 35.3136C334.037 35.9929 335.272 36.9887 336.312 38.2441C337.352 39.4995 338.178 40.9899 338.74 42.6301C339.303 44.2704 339.593 46.0284 339.593 47.8038V195.078L374 261.383Z" fill="#935555" fill-opacity="0.29"/>
<path d="M138.055 58C137.088 58.0013 136.16 58.4657 135.476 59.2912C134.792 60.1168 134.407 61.2361 134.406 62.4036V195.768C134.407 196.936 134.792 198.055 135.476 198.881C136.16 199.706 137.088 200.171 138.055 200.172H332.507C333.474 200.171 334.402 199.706 335.086 198.881C335.77 198.055 336.155 196.936 336.156 195.768V62.4036C336.155 61.2361 335.77 60.1168 335.086 59.2913C334.402 58.4657 333.474 58.0014 332.507 58H138.055Z" fill="white"/>
<path d="M136.573 203.507C136.274 203.508 135.981 203.612 135.729 203.806C135.478 204.001 135.277 204.278 135.152 204.606L125.08 231.027C124.97 231.315 124.922 231.631 124.941 231.947C124.959 232.262 125.042 232.568 125.184 232.834C125.325 233.101 125.52 233.32 125.75 233.472C125.98 233.624 126.238 233.703 126.501 233.703H338.305C338.571 233.703 338.833 233.621 339.066 233.464C339.299 233.308 339.495 233.082 339.635 232.808C339.775 232.534 339.855 232.222 339.867 231.901C339.879 231.579 339.822 231.26 339.703 230.972L328.755 204.55C328.626 204.236 328.427 203.972 328.18 203.788C327.932 203.603 327.647 203.506 327.357 203.507H136.573Z" fill="#111023"/>
<path d="M232.202 41.5193C233.497 41.5193 234.548 40.2519 234.548 38.6884C234.548 37.125 233.497 35.8576 232.202 35.8576C230.906 35.8576 229.856 37.125 229.856 38.6884C229.856 40.2519 230.906 41.5193 232.202 41.5193Z" fill="white"/>
<path d="M211.383 238.736C211.039 238.736 210.705 238.873 210.432 239.126C210.159 239.378 209.963 239.732 209.873 240.132L207.347 251.456C207.284 251.735 207.276 252.029 207.323 252.313C207.369 252.597 207.469 252.864 207.615 253.094C207.761 253.324 207.949 253.511 208.164 253.639C208.38 253.767 208.617 253.834 208.857 253.834H256.903C257.152 253.834 257.398 253.762 257.62 253.624C257.841 253.486 258.032 253.286 258.177 253.041C258.322 252.796 258.415 252.513 258.451 252.215C258.486 251.917 258.462 251.613 258.381 251.329L255.132 240.006C255.026 239.635 254.826 239.313 254.562 239.086C254.297 238.858 253.98 238.736 253.655 238.736H211.383Z" fill="#111023"/>
<path d="M339.593 191.869V194.385H124.654L124.816 194.071V191.869H339.593Z" fill="#111023"/>
<path d="M333.598 88.0712C353.752 88.0712 370.09 68.3558 370.09 44.0356C370.09 19.7154 353.752 0 333.598 0C313.444 0 297.106 19.7154 297.106 44.0356C297.106 68.3558 313.444 88.0712 333.598 88.0712Z" fill="#030303" fill-opacity="0.45"/>
<path d="M348.716 63.2225H318.48C317.927 63.2219 317.397 62.9566 317.006 62.4848C316.615 62.013 316.395 61.3734 316.394 60.7062V38.6884C316.395 38.0213 316.615 37.3816 317.006 36.9099C317.397 36.4382 317.927 36.1728 318.48 36.1721H348.716C349.269 36.1728 349.799 36.4382 350.19 36.9099C350.581 37.3816 350.801 38.0213 350.801 38.6884V60.7062C350.801 61.3734 350.581 62.013 350.19 62.4848C349.799 62.9566 349.269 63.2219 348.716 63.2225ZM318.48 38.6884V60.7062H348.718L348.716 38.6884L318.48 38.6884Z" fill="white"/>
<path d="M342.982 38.6884H324.214V28.6232C324.214 21.3328 328.161 16.0415 333.598 16.0415C339.035 16.0415 342.982 21.3328 342.982 28.6232L342.982 38.6884ZM326.299 36.1721H340.896V28.6232C340.896 22.6969 337.895 18.5579 333.598 18.5579C329.301 18.5579 326.299 22.697 326.299 28.6232L326.299 36.1721Z" fill="white"/>
<path d="M333.598 51.5846C334.75 51.5846 335.683 50.458 335.683 49.0682C335.683 47.6785 334.75 46.5519 333.598 46.5519C332.446 46.5519 331.513 47.6785 331.513 49.0682C331.513 50.458 332.446 51.5846 333.598 51.5846Z" fill="white"/>
<path d="M328.375 182.7H178.095C177.358 182.699 176.65 182.345 176.129 181.715C175.607 181.086 175.313 180.232 175.312 179.342V134.358C175.313 133.468 175.607 132.614 176.129 131.985C176.65 131.355 177.358 131.001 178.095 131H328.375C329.112 131.001 329.82 131.355 330.341 131.985C330.863 132.614 331.157 133.468 331.157 134.358V179.342C331.157 180.232 330.863 181.086 330.341 181.715C329.82 182.345 329.112 182.699 328.375 182.7ZM178.095 132.343C177.653 132.344 177.228 132.556 176.915 132.934C176.602 133.312 176.426 133.824 176.426 134.358V179.342C176.426 179.876 176.602 180.388 176.915 180.766C177.228 181.144 177.653 181.356 178.095 181.357H328.375C328.817 181.356 329.242 181.144 329.555 180.766C329.868 180.388 330.044 179.876 330.044 179.342V134.358C330.044 133.824 329.868 133.312 329.555 132.934C329.242 132.556 328.817 132.344 328.375 132.343L178.095 132.343Z" fill="#E6E6E6" fill-opacity="0.43"/>
<path d="M181.194 126.761C187.455 126.761 192.531 120.636 192.531 113.081C192.531 105.526 187.455 99.4015 181.194 99.4015C174.934 99.4015 169.858 105.526 169.858 113.081C169.858 120.636 174.934 126.761 181.194 126.761Z" fill="#E6E6E6" fill-opacity="0.43"/>
<path d="M207.376 103.961C207.127 103.961 206.881 104.02 206.652 104.134C206.422 104.248 206.214 104.416 206.038 104.628C205.862 104.84 205.723 105.091 205.627 105.368C205.532 105.645 205.483 105.942 205.483 106.241C205.483 106.541 205.532 106.838 205.627 107.115C205.723 107.391 205.862 107.643 206.038 107.855C206.214 108.066 206.422 108.234 206.652 108.349C206.881 108.463 207.127 108.522 207.376 108.521H296.446C296.947 108.521 297.428 108.281 297.782 107.853C298.136 107.426 298.335 106.846 298.335 106.241C298.335 105.637 298.136 105.057 297.782 104.629C297.428 104.202 296.947 103.961 296.446 103.961H207.376Z" fill="#E6E6E6" fill-opacity="0.43"/>
<path d="M207.376 117.641C206.875 117.641 206.394 117.881 206.04 118.309C205.685 118.736 205.486 119.316 205.486 119.921C205.486 120.525 205.685 121.105 206.04 121.533C206.394 121.961 206.875 122.201 207.376 122.201H245.703C246.204 122.201 246.685 121.961 247.039 121.533C247.393 121.105 247.592 120.525 247.592 119.921C247.592 119.316 247.393 118.736 247.039 118.309C246.685 117.881 246.204 117.641 245.703 117.641H207.376Z" fill="#E6E6E6" fill-opacity="0.43"/>
<path d="M124.284 118.563L96.5037 136.385L96.1521 121.534C105.219 119.707 113.846 116.527 121.822 111.349L124.728 102.687C125.045 101.744 125.559 100.915 126.221 100.284C126.883 99.6525 127.67 99.2396 128.504 99.0859C129.338 98.9322 130.191 99.0429 130.979 99.4071C131.767 99.7713 132.463 100.377 132.999 101.163C133.782 102.315 134.174 103.782 134.094 105.269C134.015 106.756 133.47 108.15 132.57 109.17L124.284 118.563Z" fill="#FFDEB8"/>
<path d="M56.4057 221.462C56.203 220.565 56.16 219.627 56.2794 218.708C56.3989 217.79 56.6781 216.912 57.0986 216.134L63.2012 204.832C64.6446 202.159 66.8593 200.228 69.4158 199.414C71.9722 198.601 74.688 198.962 77.0363 200.428C74.4716 205.696 74.8292 210.317 77.9221 214.333C73.1207 217.162 68.6831 220.812 64.7467 225.172C64.0281 225.763 63.2028 226.139 62.3396 226.267C61.4764 226.395 60.6003 226.273 59.7843 225.91C58.9682 225.547 58.2358 224.954 57.6481 224.18C57.0605 223.407 56.6345 222.475 56.4057 221.462Z" fill="#111023"/>
<path d="M125.549 206.686C124.626 208.543 123.322 210.082 121.764 211.157C120.205 212.231 118.444 212.804 116.649 212.82L76.1081 213.191L74.3499 200.885L92.284 194.52L77.1631 180.517L93.6905 157.178L123.71 190.941C125.464 192.914 126.604 195.554 126.939 198.42C127.274 201.286 126.783 204.204 125.549 206.686Z" fill="#111023"/>
<path d="M69.7784 290.845H60.2839C51.7592 220.332 43.0819 149.623 68.7235 123.231L98.9653 129.172L95.0972 160.148L78.218 183.487L69.7784 290.845Z" fill="#111023"/>
<path d="M78.1246 306.818C77.3813 307.062 76.6036 307.114 75.8425 306.97C75.0814 306.826 74.3542 306.489 73.7087 305.982L63.3996 304.31C61.1843 302.568 59.5842 299.896 58.9096 296.811C58.235 293.726 58.534 290.449 59.7487 287.615C64.1145 290.71 67.9442 290.278 71.2722 286.545C73.6237 292.275 77.4981 291.925 81.1983 296.752C81.6883 297.62 81.9994 298.615 82.1058 299.657C82.2123 300.699 82.1109 301.756 81.8102 302.741C81.5094 303.725 81.0181 304.609 80.377 305.318C79.7359 306.028 78.9637 306.542 78.1246 306.818Z" fill="#111023"/>
<path d="M92.284 76.1293L74.7015 71.0373C77.6217 63.8243 77.8621 55.7985 76.4597 47.2743L88.4158 46.85C88.7904 57.45 89.9238 67.3531 92.284 76.1293Z" fill="#FFDEB8"/>
<path d="M97.1162 141.948C84.3169 152.473 75.2732 142.308 68.3718 126.626C69.3308 117.029 67.7781 105.545 64.9022 93.0668C63.6232 87.563 64.1007 81.6806 66.2404 76.5808C68.3801 71.4811 72.0265 67.5347 76.4597 65.5208L91.5806 73.159C104.42 85.7879 106.947 99.4675 102.13 113.895L97.1162 141.948Z" fill="#030303" fill-opacity="0.45"/>
<path d="M60.2839 86.7378L46.218 95.6489L71.185 113.471L74.659 123.812C74.8909 124.502 75.0039 125.242 74.991 125.986C74.9782 126.731 74.8398 127.465 74.5843 128.142C74.3288 128.82 73.9616 129.428 73.505 129.93C73.0485 130.431 72.5121 130.814 71.9287 131.057C71.2654 131.333 70.5583 131.42 69.8625 131.311C69.1668 131.202 68.5014 130.9 67.9185 130.429C67.3355 129.958 66.8508 129.331 66.5024 128.596C66.1539 127.862 65.9512 127.039 65.91 126.194L65.5586 118.988L33.8258 106.351C32.7566 105.925 31.7818 105.211 30.9751 104.264C30.1684 103.316 29.551 102.159 29.1696 100.881C28.6137 99.0177 28.5854 96.9846 29.0891 95.0998C29.5929 93.215 30.6002 91.585 31.9534 90.4647L57.4707 69.3399L60.2839 86.7378Z" fill="#FFDEB8"/>
<path d="M74.3499 88.4351C68.4835 85.3328 63.149 88.7029 56.4158 91.4055L55.3608 68.9155C62.0467 64.6155 68.4212 63.4561 74.3499 66.7939L74.3499 88.4351Z" fill="#030303" fill-opacity="0.45"/>
<path d="M81.3674 57.99C87.5672 57.99 92.5931 51.9252 92.5931 44.4438C92.5931 36.9624 87.5672 30.8976 81.3674 30.8976C75.1676 30.8976 70.1417 36.9624 70.1417 44.4438C70.1417 51.9252 75.1676 57.99 81.3674 57.99Z" fill="#FFDEB8"/>
<path d="M94.797 42.7346C83.6825 44.0482 75.2134 41.8547 69.8008 35.6092V30.5795H93.8537L94.797 42.7346Z" fill="#111023"/>
</g>
<defs>
<clipPath id="clip0">
<rect width="374" height="314" fill="white"/>
</clipPath>
</defs>
</svg>
